<svg xmlns="http://www.w3.org/2000/svg" xmlns:xlink="http://www.w3.org/1999/xlink" width="1579" height="494"
     viewBox="0 0 1579 494">
    <defs>
        <style>
            .a{fill:#fff;}.b{clip-path:url(#a);}.c,.e{fill:#ebf3fa;}.d{fill:#f3f8fc;}.e{opacity:0.6;}.f{fill:#e8f0fd;}.g{fill:#c0d8fb;}.h{fill:#dfebfd;}.i{fill:#b7d3f3;}.j{fill:#deedff;}.k{fill:#2e3552;}.l{fill:#122544;}.m{fill:#d2e3fc;}.n{fill:#82b378;}.o{fill:#a8d29f;}.p{fill:#21409a;}.q{fill:#ea9e6a;}.r{fill:#d88d59;}.s{fill:#8e342e;}.t{fill:#233862;}.u{fill:#005db2;}.v{fill:#2c3e50;}.w{fill:#f9ddbf;}.x{fill:#b24940;}.y{fill:#f3f3f3;}.z{fill:#ed7d2b;}.aa{fill:#ffb27d;}.ab{fill:#ed985f;}.ac{fill:#2b3990;}.ad{fill:url(#b);}.ae{fill:url(#c);}.af{fill:#0075df;}.ag{fill:#263544;}.ah{fill:#2c3a64;}.ai{fill:#262262;}.aj{fill:#f99746;}
        </style>
        <clipPath id="a">
            <path class="a" d="M0,0H1579V494H0Z" transform="translate(210 2)"/>
        </clipPath>
        <linearGradient id="b" y1="0.5" x2="1" y2="0.5" gradientUnits="objectBoundingBox">
            <stop offset="0" stop-color="#2484c6"/>
            <stop offset="1" stop-color="#2484c6"/>
        </linearGradient>
        <linearGradient id="c" x1="0" y1="0.5" x2="1" y2="0.5" xlink:href="#b"/>
    </defs>
    <g class="b" transform="translate(-210 -2)">
        <g transform="translate(110.642 -120.63)">
            <g transform="translate(99.31 73.113)">
                <path class="c"
                      d="M632.343,328.669V710.26l-459.074,1.615c1.151-16.68-74.413-236.688,22.445-362.37,137.448-178.417,254.908-34.132,409.957-21.6A255.22,255.22,0,0,0,632.343,328.669Z"
                      transform="translate(-121.254 -160.858)"/>
                <path class="d"
                      d="M2113.228,615.135c-.613,4.769-50.353-.767-51.04,3.922l-310.328,1.076H1058.4v-379.2a245.456,245.456,0,0,0,26.676-2.153c30.439-4.151,62.343-14.606,96.165-34.286,350.071-203.02,635.108-147.9,795.156,10.6a476.939,476.939,0,0,1,53.348,63.036C2097.78,374.45,2128.527,494.446,2113.228,615.135Z"
                      transform="translate(-547.311 -73.113)"/>
                <path class="e"
                      d="M2117.075,977.59a479,479,0,0,1-3.842,62.726c-.613,4.764-50.353-.767-51.04,3.922l-310.328,1.076H1058.4v-.309l693.454-2.382,310.328-1.076c.693-4.689,50.427.847,51.04-3.922A477.88,477.88,0,0,0,2117.075,977.59Z"
                      transform="translate(-547.311 -495.604)"/>
                <path class="f"
                      d="M2003.981,434.37v290H1108.46V472.018h68.647V403.148h68.647V496.19h55.575V475.4h96.8v35.144h42.136V431.615h112.775V296.25h89.179v72.2h20.335V307.968h89.179v93.16h80.823V343.96H1919v57.168h16.115V434.37Z"
                      transform="translate(-570.695 -177.343)"/>
                <g transform="translate(321.498 192.286)">
                    <path class="g"
                          d="M788.9,524.1H709.265a6.664,6.664,0,0,1-6.645-6.645V440.6a6.664,6.664,0,0,1,6.645-6.645H788.9a6.664,6.664,0,0,1,6.645,6.645v76.859A6.668,6.668,0,0,1,788.9,524.1Z"
                          transform="translate(-702.62 -433.95)"/>
                    <path class="h"
                          d="M788.984,523.622H716.25a6.087,6.087,0,0,1-6.07-6.07v-70.2a6.087,6.087,0,0,1,6.07-6.07h72.734a6.087,6.087,0,0,1,6.07,6.07v70.2A6.091,6.091,0,0,1,788.984,523.622Z"
                          transform="translate(-706.151 -437.374)"/>
                    <g transform="translate(10.972 10.21)">
                        <g transform="translate(33.567)">
                            <circle class="i" cx="1.924" cy="1.924" r="1.924"/>
                            <path class="i"
                                  d="M815.137,460.953a1.924,1.924,0,1,1,.746,2.616A1.925,1.925,0,0,1,815.137,460.953Z"
                                  transform="translate(-799.603 -456.312)"/>
                            <path class="i"
                                  d="M839.546,481.391a1.924,1.924,0,1,1-.576,2.659A1.922,1.922,0,0,1,839.546,481.391Z"
                                  transform="translate(-810.706 -466.177)"/>
                            <circle class="i" cx="1.924" cy="1.924" r="1.924"
                                    transform="translate(32.909 34.533) rotate(-67.623)"/>
                            <path class="i"
                                  d="M843.489,547.506a1.926,1.926,0,1,1-2.723,0A1.927,1.927,0,0,1,843.489,547.506Z"
                                  transform="translate(-811.425 -496.94)"/>
                            <circle class="i" cx="1.924" cy="1.924" r="1.924" transform="translate(16.695 62.124)"/>
                            <circle class="i" cx="1.924" cy="1.924" r="1.924" transform="translate(0 67.011)"/>
                        </g>
                        <g transform="translate(0 3.653)">
                            <path class="i" d="M761,460.953a1.924,1.924,0,1,0-.746,2.616A1.925,1.925,0,0,0,761,460.953Z"
                                  transform="translate(-739.178 -459.964)"/>
                            <path class="i"
                                  d="M736.59,481.391a1.924,1.924,0,1,0,.576,2.659A1.921,1.921,0,0,0,736.59,481.391Z"
                                  transform="translate(-728.074 -469.829)"/>
                            <circle class="i" cx="1.924" cy="1.924" r="1.924" transform="translate(0 27.926)"/>
                            <path class="i"
                                  d="M732.646,547.506a1.926,1.926,0,1,0,2.723,0A1.927,1.927,0,0,0,732.646,547.506Z"
                                  transform="translate(-727.354 -500.593)"/>
                            <circle class="i" cx="1.924" cy="1.924" r="1.924" transform="translate(16.813 58.472)"/>
                        </g>
                    </g>
                    <g transform="translate(45.946 19.664)">
                        <circle class="i" cx="1.924" cy="1.924" r="1.924" transform="translate(0 22.126)"/>
                        <g transform="translate(1.663)">
                            <rect class="i" width="0.528" height="24.049"/>
                        </g>
                        <g transform="translate(1.169 13.401)">
                            <rect class="i" width="16.205" height="1.577"
                                  transform="matrix(0.786, -0.618, 0.618, 0.786, 0, 10.007)"/>
                        </g>
                    </g>
                </g>
                <path class="j" d="M1061.688,383.98V763.344H1008.33v-378A243.841,243.841,0,0,0,1061.688,383.98Z"
                      transform="translate(-523.923 -218.322)"/>
                <path class="j" d="M2834.428,402.591v340H2781.07V339.55A471.971,471.971,0,0,1,2834.428,402.591Z"
                      transform="translate(-1351.988 -197.569)"/>
                <path class="k"
                      d="M1705.087,1100.052H101.628a2.327,2.327,0,0,1-2.318-2.318v-2.276a2.327,2.327,0,0,1,2.318-2.318H1705.087a2.327,2.327,0,0,1,2.318,2.318v2.276A2.327,2.327,0,0,1,1705.087,1100.052Z"
                      transform="translate(-99.31 -549.578)"/>
                <g transform="translate(572.957 288.585)">
                    <path class="i" d="M1183.058,844.6H1174.5l10.482,132.641H1205.8Z"
                          transform="translate(-1174.5 -722.067)"/>
                    <path class="l"
                          d="M1490.694,737.216l-1.838.373a15.219,15.219,0,0,1-17.879-11.867l-1.94-9.6A15.219,15.219,0,0,1,1480.9,698.24l1.839-.373a15.219,15.219,0,0,1,17.878,11.867l1.94,9.6A15.215,15.215,0,0,1,1490.694,737.216Z"
                          transform="translate(-1311.941 -653.387)"/>
                    <path class="i" d="M1174.5,833.771s46.74-21.939,110.772-7.343l-102.214,7.343Z"
                          transform="translate(-1174.5 -711.239)"/>
                    <path class="m" d="M1213.3,969.145l-22.738-133.9s71.61-24.049,127.169,0l33.05,133.063Z"
                          transform="translate(-1182.002 -712.703)"/>
                    <g transform="translate(417.018 191.706)">
                        <path class="n"
                              d="M2076.189,997.68c-1.268,14.527-9.475,19.014-13.083,18.63s-24.7-8.441-25.163-5.483,12.24,12.614,21.134,13.066c0,0-16.791,18.518-27.95,13.173s-12.113-13.818-19.067-16.994-12.9-3.171-10.024.075,15.465,6.389,19.44,13.429c.938,1.657,1.854,3.192,2.558,4.546l-23.5-.048c-7.45-3.7-13.727-8.809-14.2-14.313-.037-.421-.069-.821-.1-1.2l-.725-8.468s-12.065-14.074-5.792-25.749a17.862,17.862,0,0,1,4.78-5.547s11.244-6.81,20.415-6.251c0,0-7.1,11.915-9.107,19-.709,2.494-.778,4.391.314,4.956,1.2.618,2.75-1.178,4.354-4.061,4.018-7.215,8.372-21.257,8.372-21.257s6.762-.655,14.457-.757c3.453-.043,7.093.021,10.391.309a28.044,28.044,0,0,1,8.974,1.918s-.458.378-1.231,1.023c-1.146.959-2.984,2.521-5.03,4.327-6.07,5.366-13.951,12.933-11,13.615,2.387.554,9.875-3.9,16.541-8.313,6.2-4.109,11.692-8.19,11.692-8.19S2077.458,983.148,2076.189,997.68Z"
                              transform="translate(-1966.803 -974.408)"/>
                        <g transform="translate(0 23.549)">
                            <path class="n"
                                  d="M2058.532,1018.711s-64.687-2.494-78.969,16.008a46.767,46.767,0,0,1-12.88,18.076l-1.513,4.13s11.207-11.819,15.219-12.534C1980.384,1044.391,1974.112,1021.477,2058.532,1018.711Z"
                                  transform="translate(-1960.848 -1018.599)"/>
                            <path class="n"
                                  d="M1965.613,1081.246c-.554.608-1.385,1.433-2.574,2.531l-.027.027c-.41.378-.815.794-1.2,1.231a23.628,23.628,0,0,0-1.727,2.164l-3.022-.005a36.2,36.2,0,0,1,5.83-5.84l.011-.005C1963.135,1081.2,1968.709,1077.836,1965.613,1081.246Z"
                                  transform="translate(-1957.06 -1047.151)"/>
                        </g>
                    </g>
                    <g transform="translate(269.397 139.725)">
                        <path class="o"
                              d="M1775.763,944.442s26.1-14.612,13.919-34.446c0,0-9.741-12.177-20.18-15.31,0,0,5.569,29.575,0,30.273s-3.826-33.407-3.826-33.407-27.492-13.221-38.278-12.177c0,0,17.052,28.883,11.484,28.185s-24.7-29.927-24.7-29.927-28.184-5.217-32.709,11.484,2.782,25.051,6.96,26.1,30.966.7,30.274,4.178-18.79,9.048-28.883,5.915c0,0,11.137,27.486,25.749,26.1s19.136-10.439,28.184-11.137,15.656,1.737,11.137,4.178-19.834.8-27.14,7.013-13.221,10.04.346,12.821,37.926,1.044,42.8-9.395Z"
                              transform="translate(-1680.041 -876.863)"/>
                        <g transform="translate(14.297 17.472)">
                            <path class="n"
                                  d="M1706.87,909.65s73.075,23.66,81.426,50.108c0,0-.346,11.83,6.96,25.4v5.222s-7.658-17.745-11.83-20.181C1783.42,970.2,1799.774,947.235,1706.87,909.65Z"
                                  transform="translate(-1706.87 -909.65)"/>
                            <path class="n"
                                  d="M1876.433,1071.029l-4.172-.01c-.133-6.038-.831-12.822-2.894-17.985v-.005c-.256-.645-.533-1.268-.837-1.86a.041.041,0,0,0-.011-.021c-.869-1.695-1.455-2.947-1.823-3.853l-.005-.005c-2.137-5.238,2.968,1.194,2.968,1.194A49.014,49.014,0,0,1,1876.433,1071.029Z"
                                  transform="translate(-1781.28 -972.983)"/>
                        </g>
                    </g>
                    <g transform="translate(384.021 98.068)">
                        <path class="o"
                              d="M1917.755,887.773s-34.4-19.264-18.347-45.408c0,0,12.843-16.056,26.6-20.18,0,0-7.338,38.986,0,39.9s5.047-44.033,5.047-44.033,36.236-17.431,50.454-16.056c0,0-22.477,38.07-15.134,37.153s32.565-39.444,32.565-39.444,37.153-6.88,43.116,15.134-3.672,33.023-9.171,34.4-40.825.917-39.908,5.5,24.769,11.926,38.07,7.8c0,0-14.676,36.236-33.945,34.4s-25.227-13.759-37.153-14.676-20.639,2.291-14.676,5.5,26.144,1.05,35.778,9.24,17.431,13.237-.458,16.9-50,1.375-56.417-12.384Z"
                              transform="translate(-1895.138 -798.69)"/>
                        <g transform="translate(4.45 23.031)">
                            <path class="n"
                                  d="M2036.87,841.91s-96.325,31.19-107.329,66.052c0,0,.458,15.6-9.171,33.487v6.88s10.093-23.394,15.6-26.6C1935.962,921.721,1914.4,891.447,2036.87,841.91Z"
                                  transform="translate(-1911.374 -841.91)"/>
                            <path class="n"
                                  d="M1916.4,1023.355a.019.019,0,0,1-.005.011c-.49,1.2-1.263,2.851-2.4,5.094,0,.005-.005.011-.011.016-.4.778-.762,1.593-1.1,2.446v.005c-3.3,8.265-3.949,19.669-3.826,28.654l-5.526-.011a64.643,64.643,0,0,1,8.963-34.632h0C1912.629,1024.751,1919.178,1016.544,1916.4,1023.355Z"
                                  transform="translate(-1903.489 -925.404)"/>
                        </g>
                    </g>
                    <path class="p"
                          d="M1488.057,960.408H1357.211a139.467,139.467,0,0,1-5.116-14.916,254.04,254.04,0,0,1-7.684-41.507c-.021-.176-.037-.362-.059-.544a483.8,483.8,0,0,1-2.3-62.044c.2-8.169.527-13.2.549-13.445v-.005c.277-.117.56-.229.837-.341,6.938-2.91,13.594-5.419,19.973-7.594.032-.005.053-.011.053-.011,5.361-1.828,10.525-3.405,15.491-4.769a225.567,225.567,0,0,1,24.364-5.313,177.472,177.472,0,0,1,24.055-2.217c.325-.011.639-.011.964-.021q2.846-.048,5.5.011c17.91.384,29.831,3.949,35.858,6.325.837.33,1.556.64,2.158.917.08.032.16.064.24.1.682.3,1.21.56,1.577.746a.758.758,0,0,1,.144.08c.176.091.352.192.517.288l9.437,99.16Z"
                          transform="translate(-1252.69 -704.813)"/>
                    <path class="p"
                          d="M1706.759,942.207c-13.109,6.086-91.087,11.2-98.574,9.038-3.842-1.108-19.919-15.267-36.093-32.687l-.016-.011c-15.3-16.477-30.737-35.869-35.938-49.825-10.706-28.68-1.5-54.142-1.5-54.142s19.9-.085,28.009,4.812,54.488,90.319,60.685,92.568c6.2,2.265,79.662,6.464,88.071,10.455C1711.4,922.415,1719.857,936.121,1706.759,942.207Z"
                          transform="translate(-1341.004 -708.045)"/>
                    <path class="q"
                          d="M1460.688,789.813l-.021,4.828s1.337,15.1-17.255,17.335-32.693-5.84-32.2-17.489c1.663-9.027,3.49-15.225,3.6-22.69a52.459,52.459,0,0,0-.677-9.043l36.029-.773,10.615,1.716Z"
                          transform="translate(-1285.063 -683.475)"/>
                    <path class="r"
                          d="M1463.374,764.369l-.1,26.117a30.451,30.451,0,0,1-12.981,2.883c-16.562.027-33.044-26.623-33.567-29.948Z"
                          transform="translate(-1287.648 -684.147)"/>
                    <path class="q"
                          d="M1457.858,722.271s-46.132,9.395-51.541-19.424-15-47.017,14.223-54.232,37.03,2.7,41.171,11.883S1469.72,719.084,1457.858,722.271Z"
                          transform="translate(-1280.012 -629.361)"/>
                    <path class="s"
                          d="M1459.492,624.365a96.706,96.706,0,0,1-28.057-7.546c-12.326-5.34-27.859.586-32.9,3.251a7.493,7.493,0,0,1,1.226-3.037,6.771,6.771,0,0,0-2.6,3.858c-.234.171-.336.293-.277.33a8.716,8.716,0,0,0-4.215.277s1.156-.165,1.567.576a.609.609,0,0,0,.187.2c-19.205,9.315-20.932,39.69-14.734,46.708,7.455,8.441,16.4,27.47,16.4,27.47s3.245-4.5,1.881-11.942,5.062-7.45,13.173-10.844,1.332-12.853,8.425-18.614,33.14-2.419,32.794-6.816C1462.028,644.7,1459.492,625.356,1459.492,624.365Z"
                          transform="translate(-1268.851 -614.661)"/>
                    <path class="t"
                          d="M1359.369,1039.451a139.414,139.414,0,0,1-5.116-14.916,254.038,254.038,0,0,1-7.684-41.507c-.021-.176-.037-.362-.059-.544.1.048.261.314.368.187,5.094-6.187,19-12.96,35.842,11.7,3.363,4.913,18.1,39.338,20.447,45.088h-43.8Z"
                          transform="translate(-1254.848 -783.856)"/>
                    <path class="q"
                          d="M1396.187,1079.874c-.378-2.228.037-5.025,1.775-8.516,0,0,2.158-1.4,5.025-3.032,4.274-2.409,10.114-5.329,12.763-4.86.474.085,1.114.224,1.876.41,6.277,1.508,20.916,6.016,23.127,8.654,1.823,2.174,4.306,4.94,6.016,7.343Z"
                          transform="translate(-1277.992 -824.279)"/>
                    <path class="p"
                          d="M1306.182,973.51H1182.9a7.517,7.517,0,0,1,.091-4.146c3.677-9.288,10.855-24.582,19.12-40.985,6.08-12.07,12.741-24.747,19.035-36.082,8.734-15.742,16.738-28.9,21.438-34.307a55.529,55.529,0,0,1,13.264-10.748,94.247,94.247,0,0,1,12.374-6.182v-.005c.277-.117.56-.229.837-.341a109.057,109.057,0,0,1,15.39-5s.091,3.9.1,9.885c.027,17.378-.64,52.4-6.187,60.941a115,115,0,0,1-8.02,10.2c-.107.117-.2.24-.309.357-1.95,2.286-4.109,4.743-6.373,7.269-12.869,14.415-29.165,31.339-31.147,33.4-.139.139-.2.213-.2.213h.24l34.568.485,10.6.144,21.987.3a8.309,8.309,0,0,1,3.6,3.064C1305.431,965.074,1306.087,969.6,1306.182,973.51Z"
                          transform="translate(-1178.31 -717.915)"/>
                    <path class="t"
                          d="M1742.816,1031.187c-13.109,6.086-91.087,11.2-98.574,9.038-3.842-1.108-19.919-15.267-36.093-32.687.8.107,8.2-12.224,41.917,17.276,0,0,8.83,3.933,32.869,1.732S1737.839,1023.535,1742.816,1031.187Z"
                          transform="translate(-1377.062 -797.025)"/>
                    <g transform="translate(200.009 158.279)">
                        <path class="u" d="M1638.972,1087.629H1549.83a7.109,7.109,0,0,1,7.1-7.109h82.033v7.109Z"
                              transform="translate(-1549.83 -990.547)"/>
                        <path class="u" d="M1686.87,911.68h137.816l-33.055,97.082H1652.92Z"
                              transform="translate(-1597.984 -911.68)"/>
                        <path class="v" d="M1828.5,911.68l-33.055,97.082H1656.73l33.95-97.082Z"
                              transform="translate(-1599.764 -911.68)"/>
                        <path class="w"
                              d="M1827.7,995.194a8.959,8.959,0,0,1-8.265,6.714c-3.709,0-6.022-3.005-5.164-6.714a8.959,8.959,0,0,1,8.265-6.714C1826.247,988.48,1828.56,991.485,1827.7,995.194Z"
                              transform="translate(-1673.271 -947.554)"/>
                        <path class="x" d="M1893.523,911.68l-33.055,97.082H1795.94l77.29-97.082Z"
                              transform="translate(-1664.791 -911.68)"/>
                    </g>
                    <path class="l"
                          d="M1417.434,737.216l-1.839.373a15.219,15.219,0,0,1-17.878-11.867l-1.94-9.6a15.219,15.219,0,0,1,11.867-17.878l1.838-.373a15.219,15.219,0,0,1,17.879,11.867l1.94,9.6A15.215,15.215,0,0,1,1417.434,737.216Z"
                          transform="translate(-1277.721 -653.387)"/>
                    <g transform="translate(124.049)">
                        <path class="l"
                              d="M1408.652,663.9c-1.231-2.222-3.037-20.1,1.876-34.323,2.377-6.88,6.214-10.8,11.031-13.45a11.78,11.78,0,0,1,5.681-1.471l4.839.08c-15.944,6.752-19.637,42.86-18.4,46.713a1.623,1.623,0,0,0-.122-.266Z"
                              transform="translate(-1407.286 -614.66)"/>
                    </g>
                    <g transform="translate(131.762 63.973)">
                        <path class="l"
                              d="M1461.945,757.571c-26.794,0-40.057-21.172-40.185-21.39l2.393-1.465-1.2.73,1.2-.735c.123.2,12.614,20.047,37.793,20.047h.506l.032,2.808C1462.3,757.571,1462.121,757.571,1461.945,757.571Z"
                              transform="translate(-1421.76 -734.71)"/>
                    </g>
                    <path class="y"
                          d="M1418.979,737.009l-.917.187a7.584,7.584,0,0,1-8.91-5.915l-.965-4.785a7.584,7.584,0,0,1,5.915-8.91l.917-.187a7.584,7.584,0,0,1,8.91,5.915l.965,4.785A7.584,7.584,0,0,1,1418.979,737.009Z"
                          transform="translate(-1283.588 -662.58)"/>
                    <path class="l"
                          d="M1499.145,775.269h-2.526a2.349,2.349,0,0,1-2.339-2.339h0a2.346,2.346,0,0,1,2.339-2.339h2.526a2.349,2.349,0,0,1,2.339,2.339h0A2.346,2.346,0,0,1,1499.145,775.269Z"
                          transform="translate(-1323.873 -687.497)"/>
                </g>
                <g transform="translate(128.831 276.194)">
                    <path class="s"
                          d="M449.011,650.027s-22.483,11.494-6.1,36.183c0,0-19.317,2.233-24.172-3.32a15.611,15.611,0,0,0,1.588,3.613s-18.71-2.451-25.413-9.544,14.2-101.425,64.043-82.118c0,0,44.31,4.039,31.734,53.987s3.943,52.719,3.943,52.719-4.977,1.492-7.194,1.119c0,0-3.032-1.78-3.373-3.682,0,0,.165,2.926.847,3.959,0,0-18.118-1.306-25.893-9.528S444.716,660.046,449.011,650.027Z"
                          transform="translate(-365.651 -591.798)"/>
                    <path class="z"
                          d="M540.318,713.076l-1.8.25a14.754,14.754,0,0,1-16.594-12.55l-1.306-9.406a14.754,14.754,0,0,1,12.55-16.594l1.8-.25a14.754,14.754,0,0,1,16.594,12.55l1.306,9.406A14.754,14.754,0,0,1,540.318,713.076Z"
                          transform="translate(-424.873 -630.169)"/>
                    <path class="aa"
                          d="M487.413,818.126c-6.709,5.18-10.951,23.873-21.769,26.959-40.542,11.574-62.305-36.572-69.425-60.073a35.284,35.284,0,0,1,13.685-4.977c2.947-.5,6.054-.89,8.633-1.151,4.428-3.762,10.557-18.555,10.93-41.054l1.956.421,32.783,7.2s-.954,10.354-1.188,20.106c-.176,7.631-.421,9.453.171,10.365,2.553.421,5.553,6.938,5.553,6.938a.064.064,0,0,0,.016.032A208.162,208.162,0,0,1,487.413,818.126Z"
                          transform="translate(-366.831 -659.804)"/>
                    <path class="ab"
                          d="M495.059,745.819s-.965,10.343-1.188,20.106c-18.411-.9-27.806-17.905-31.6-27.305Z"
                          transform="translate(-397.684 -660.173)"/>
                    <g transform="translate(0 115.798)">
                        <path class="p"
                              d="M605.2,948.588s-19.28.709-40.217.778c-2.478.011-4.982.011-7.482,0-17.052-.069-33.807-.671-40.937-2.51C509.6,945.06,482.8,926.9,461.354,904.9a.016.016,0,0,1-.005-.011c-1.663,3.965-2.92,6.991-2.952,7.231a111.08,111.08,0,0,1-2.958,14.638A178.013,178.013,0,0,1,442.2,960.637l-11.484-.021-89.643-.128s16.935-26.085,12.384-92.9c-.117-1.689,15.608-55.6,15.608-55.6s12.214-2.137,26.335-3.277c1.332,1.215,4.077,36.679,21.737,38.736,2.872.33,21.3,28.483,21.3,28.483l5.579-28.755-6.6-38.15c8.473,2.483,13.12,3.373,20.165,6.187A22.268,22.268,0,0,1,468.82,825.2c12.342,22.547,52.388,95.281,56.476,96.975,3.826,1.588,18.251,4.471,33.519,7.258h.011c20.42,3.73,42.349,7.269,42.349,7.269Z"
                              transform="translate(-341.07 -808.71)"/>
                        <path class="p" d="M537.231,1093.815l-6.421.021a.074.074,0,0,1,.021-.027Z"
                              transform="translate(-429.7 -941.883)"/>
                    </g>
                    <path class="aa"
                          d="M496.654,705.619s-43.6-.853-42.647-28-4.039-45.53,23.836-46.132,32.917,9.944,34.8,19.083S508.02,705.144,496.654,705.619Z"
                          transform="translate(-393.817 -610.119)"/>
                    <path class="ac"
                          d="M670.411,1015.785c-2.478.011-4.982.011-7.482,0-17.052-.069-33.807-.672-40.937-2.51-6.965-1.8-33.764-19.957-55.207-41.954a.017.017,0,0,1-.005-.011s4.524-17.319,6.475-20.212,9.645,25.27,27.614,36.732,46.1,19.493,59.764,16.242C669.835,1001.876,670.779,1010.146,670.411,1015.785Z"
                          transform="translate(-446.502 -759.325)"/>
                    <path class="a"
                          d="M517.98,741.4s.277,3.251,7.428,3.762c0,0,6,.432,6.251-3.064C531.659,742.107,526.2,738.824,517.98,741.4Z"
                          transform="translate(-423.707 -661.011)"/>
                    <g transform="translate(65.732 59.199)">
                        <path class="l"
                              d="M495.322,734.671c-24.769-7.828-30.844-31.275-30.9-31.51l2.643-.655-1.322.325,1.322-.33c.059.224,5.808,22.216,29.085,29.57.155.048.309.1.469.144l-.794,2.606C495.653,734.777,495.487,734.724,495.322,734.671Z"
                              transform="translate(-464.42 -702.5)"/>
                    </g>
                    <path class="v"
                          d="M524.245,761.792l-2.334-.735a2.28,2.28,0,0,1-1.481-2.846h0a2.28,2.28,0,0,1,2.846-1.481l2.334.735a2.28,2.28,0,0,1,1.481,2.846h0A2.28,2.28,0,0,1,524.245,761.792Z"
                          transform="translate(-424.802 -668.583)"/>
                    <path class="s"
                          d="M494.7,620.846s-11.164,33.06-27.9,38.672-22.3-1.029-22.3-1.029a48.432,48.432,0,0,0,13.754-29.666C458.254,628.818,485.3,607.327,494.7,620.846Z"
                          transform="translate(-389.383 -603.073)"/>
                    <path class="s"
                          d="M499.58,633.217s22.733-1.274,29.522,5.2c4.9,4.668,4.785,7.1,5.164,13.328,0,0,9.938-15.331-.288-26.064C523.134,614.294,499.58,633.217,499.58,633.217Z"
                          transform="translate(-415.112 -605.713)"/>
                    <path class="s"
                          d="M513.651,624.463s-5.691,31.632-26.5,43.121c0,0,20.154-20.628,20.511-41.267S513.651,624.463,513.651,624.463Z"
                          transform="translate(-409.306 -603.194)"/>
                    <path class="s"
                          d="M394.9,676.96c6.7,7.093,25.414,9.549,25.414,9.549a15.51,15.51,0,0,1-1.583-3.618c9.619,7.8,33.231,2.137,33.231,2.137-18.838-4.162-12.736-31.35-6.331-32.506,3.736-20.506,11.143-46.031,14.606-57.5-.831-.139-1.306-.181-1.306-.181C409.109,575.535,388.2,669.872,394.9,676.96Z"
                          transform="translate(-365.647 -591.798)"/>
                    <g transform="translate(50.34)">
                        <path class="v"
                              d="M455.378,707.846l-1.8.25a14.754,14.754,0,0,1-16.594-12.55l-1.306-9.406a14.754,14.754,0,0,1,12.55-16.594l1.8-.25a14.754,14.754,0,0,1,16.594,12.55l1.306,9.406A14.758,14.758,0,0,1,455.378,707.846Z"
                              transform="translate(-435.537 -627.726)"/>
                        <g transform="translate(7.881)">
                            <path class="v"
                                  d="M450.51,637.206c-1.071-2,2.68-17.591,8.2-29.677,2.664-5.84,9.395-13.663,14.2-15.678,1.737-.73,4.045-.432,5.92-.005a45.282,45.282,0,0,1,5.2,2.094c-15.79,4.919-29.506,38.006-28.515,41.432a1.167,1.167,0,0,0-.107-.24Z"
                                  transform="translate(-450.327 -591.409)"/>
                        </g>
                        <path class="a"
                              d="M457.3,707.3l-.9.123a7.355,7.355,0,0,1-8.27-6.251l-.65-4.689a7.355,7.355,0,0,1,6.251-8.27l.9-.123a7.347,7.347,0,0,1,8.265,6.251l.65,4.689A7.336,7.336,0,0,1,457.3,707.3Z"
                              transform="translate(-441.087 -636.536)"/>
                    </g>
                    <path class="aa"
                          d="M664.48,1041.264s18.694-1.076,20.511-.1c2.952,1.588,12.992,8.057,14.564,9.933s5.7,9.416,5.7,9.416-1.785.5-2.59-.229-6.906-7.2-6.906-7.2l6.267,9.517s-2.169-.1-3.027-1.039-6.714-6.9-6.714-6.9l-1.993-.394a21.82,21.82,0,0,1,3.133,3.1,19.223,19.223,0,0,1,1.833,3.064,14.8,14.8,0,0,1-2.345-.57c-.554-.266-5.809-4.86-5.809-4.86l2.782,3.8a7.245,7.245,0,0,1-2.494-.512c-.618-.416-4.705-4.183-5.43-4.178s-5.947-.208-8.185-1.4-9.278-3.911-9.278-3.911Z"
                          transform="translate(-492.138 -801.304)"/>
                    <path class="ad"
                          d="M434.413,798.95s-12.5,3.645-15.353,6.517c0,0,13.072,33.412,31.915,49l5.036-3.576v8.121l18.864,12.347S433.443,809.054,434.413,798.95Z"
                          transform="translate(-377.5 -688.353)"/>
                    <path class="ac"
                          d="M471.569,978.989a178.009,178.009,0,0,1-13.242,33.876l6.4.005-6.421.021h-59.55s6.912-.011,6.9-.048c-.16-.6,10.072-28.35-6.9-39.722-17-11.393-23.165-39.4-23.165-39.4l54.088-13.21s22.285,32.522,28.632,38.72c4.871,4.759,16.221,5.116,16.221,5.116Z"
                          transform="translate(-357.195 -745.135)"/>
                    <path class="ae"
                          d="M521.614,804.455s5.755,45.461,1.023,66.9c0,0,7.722-14.186,8.8-16.786l-1.3-7.8,4.983,1.732s-4.4-36.242-8.372-42.6-5.441-6.97-5.441-6.97Z"
                          transform="translate(-425.262 -688.349)"/>
                    <path class="aa"
                          d="M792.9,1054.4s-24.119.89-47.694.778c-5.846-9.07,1.311-19.941,1.311-19.941h.011c20.42,3.73,42.349,7.269,42.349,7.269Z"
                          transform="translate(-528.773 -798.727)"/>
                    <path class="u" d="M762.872,1087.629H673.73a7.109,7.109,0,0,1,7.1-7.109h82.033v7.109Z"
                          transform="translate(-496.459 -819.878)"/>
                    <path class="af" d="M948.586,911.68l-33.055,97.082H776.82l33.95-97.082Z"
                          transform="translate(-544.613 -741.011)"/>
                    <path class="v" d="M950.361,911.68l-32.751,96.187-.3.9H780.62l33.956-97.082Z"
                          transform="translate(-546.388 -741.011)"/>
                    <path class="y"
                          d="M951.6,995.194a8.959,8.959,0,0,1-8.265,6.714c-3.709,0-6.022-3.005-5.164-6.714a8.959,8.959,0,0,1,8.265-6.714C950.147,988.48,952.46,991.485,951.6,995.194Z"
                          transform="translate(-619.9 -776.885)"/>
                    <path class="ag" d="M1015.392,911.68l-32.751,96.187h-62.8l76.576-96.187Z"
                          transform="translate(-611.42 -741.011)"/>
                    <path class="aa"
                          d="M602.067,1036.56s-45.887,4.007-71.247,2.878V1014.52c16.615,4.588,71.231,14.489,71.231,14.489Z"
                          transform="translate(-429.704 -789.048)"/>
                    <path class="p"
                          d="M386.937,811.18s-26.245.6-34.366,9.368,8.057,58.351,8.057,58.351,48.914,59.907,73.384,64.133c0,0,10.7,1.46,15.688,1.54,0,0-4.892-14.25,4.21-23.191,0,0-10.477-2.931-10.914-4.231S386.937,811.18,386.937,811.18Z"
                          transform="translate(-345.377 -694.066)"/>
                </g>
                <g transform="translate(1145.931 277.622)">
                    <path class="ah"
                          d="M2378.075,597.092s-26.58-9.89-43.185,9.528c-9.523,11.132-70.405,127.2-69.675,137.358s6.533,15.241,6.533,15.241-2.542-8.889-.634-13.519c0,0-1.226,15.651,8.436,22.317,5.036,3.474,130.372-3.331,141.259-18.507,23.682-33.007-28.035-50.081-26.762-85.737C2394.781,643.1,2415.089,599.176,2378.075,597.092Z"
                          transform="translate(-2256.955 -594.315)"/>
                    <path class="v"
                          d="M2505.88,704.324l-1.78.357a14.757,14.757,0,0,1-17.335-11.505l-1.881-9.31a14.757,14.757,0,0,1,11.505-17.335l1.78-.357A14.757,14.757,0,0,1,2515.5,677.68l1.881,9.31A14.751,14.751,0,0,1,2505.88,704.324Z"
                          transform="translate(-2359.432 -627.624)"/>
                    <path class="p"
                          d="M2636.049,963.622h-83.157c-14.105-22.392-26.506-52.623-29.394-76.166-1.375-11.169-.607-20.831,3.123-27.433,11.617-20.516-6.81-44.6-6.81-44.6s25.365,7.178,31.265,28.094c6.011,21.3,22.136,92.174,22.136,92.174l61.746,12.7C2637.861,955.645,2636.049,963.622,2636.049,963.622Z"
                          transform="translate(-2375.882 -697.475)"/>
                    <path class="ai"
                          d="M2639.281,1023.454h-83.157c-14.105-22.392-26.506-52.623-29.394-76.166l12.336-3.778s15.608,71.242,24.683,72.329S2639.281,1023.454,2639.281,1023.454Z"
                          transform="translate(-2379.114 -757.307)"/>
                    <path class="aa"
                          d="M2461.289,811.552a76.174,76.174,0,0,1-25.211,14.26c-39.754,14.042-59.295-18.688-67.848-41.709a35.308,35.308,0,0,1,13.349-5.814c2.909-.682,5.99-1.263,8.542-1.679,4.188-4.029,9.395-19.168,8.382-41.651l1.977.3,33.167,5.169s-.32,10.391.053,20.143c.3,7.626,1.023,14.868,2.659,16.472,2.574.261,4.119.448,4.119.448a.119.119,0,0,0,.021.027A208.715,208.715,0,0,1,2461.289,811.552Z"
                          transform="translate(-2305.077 -659.891)"/>
                    <path class="ab"
                          d="M2461.927,740.7s-.325,10.386.053,20.138c-18.433.234-28.851-16.162-33.221-25.312Z"
                          transform="translate(-2333.351 -660.157)"/>
                    <path class="p"
                          d="M2459.328,880.543c-.091.714-8.953,29.533-9.048,30.258-3.075,24.124-8.644,49.868-8.644,49.868l-12.177-.021-80.365-.16s9.693-29.256-15.88-74.1q-1.255-2.206-2.627-4.46c-3.64-5.984,19.338-69.942,19.338-69.942s10.061-1.78,24.177-2.915c1.332,1.22,11.137,37.089,28.883,38.182,23.165,1.428,14.383-38.539,14.383-38.539,9.432,1.892,12.837,2.584,24.95,8.388C2442.318,817.1,2459.818,876.605,2459.328,880.543Z"
                          transform="translate(-2287.312 -694.34)"/>
                    <path class="aa"
                          d="M2462.623,698.934s-43.564,1.828-44.283-25.323-6.827-45.194,20.958-47.512,33.465,7.9,35.911,16.9S2473.942,697.757,2462.623,698.934Z"
                          transform="translate(-2327.989 -608.886)"/>
                    <path class="a"
                          d="M2484.59,734.526s.479,3.229,7.647,3.3c0,0,6.016.064,6.054-3.442C2498.291,734.383,2492.631,731.446,2484.59,734.526Z"
                          transform="translate(-2359.43 -659.031)"/>
                    <g transform="translate(95.409 55.944)">
                        <path class="l"
                              d="M2461.543,729.434c-25.206-6.288-32.709-29.32-32.784-29.549l2.6-.815-1.3.41,1.295-.41c.069.218,7.162,21.816,30.849,27.726.16.037.314.08.474.117l-.629,2.648C2461.879,729.514,2461.708,729.477,2461.543,729.434Z"
                              transform="translate(-2428.76 -699.07)"/>
                    </g>
                    <path class="ah"
                          d="M2492.159,754.724l-2.377-.592a2.275,2.275,0,0,1-1.652-2.75h0a2.275,2.275,0,0,1,2.75-1.652l2.377.591a2.275,2.275,0,0,1,1.652,2.75h0A2.275,2.275,0,0,1,2492.159,754.724Z"
                          transform="translate(-2361.052 -666.759)"/>
                    <path class="ah"
                          d="M2437.592,594.414s28.051-4.38,39.658,18.976c8.835,17.777,1.465,28.877-2,32.277,0,0-4.583-25.536-13.157-27.71,0,0-5.526-1.689-9.294,2.7s-9.219,23.921-15.48,26.916c0,0-19.44,4.8-20.394-1.982s-.421-27.9,4.476-31.3S2437.592,594.414,2437.592,594.414Z"
                          transform="translate(-2327.641 -594.088)"/>
                    <g transform="translate(79.807 0.257)">
                        <path class="z"
                              d="M2420.77,704.324l-1.78.357a14.757,14.757,0,0,1-17.335-11.505l-1.881-9.31a14.757,14.757,0,0,1,11.505-17.335l1.78-.357a14.757,14.757,0,0,1,17.335,11.505l1.881,9.31A14.751,14.751,0,0,1,2420.77,704.324Z"
                              transform="translate(-2399.483 -627.881)"/>
                        <g transform="translate(6.104)">
                            <path class="z"
                                  d="M2412.26,637.484c-1.194-1.934-2.942-17.511,1.822-29.916a20.561,20.561,0,0,1,10.7-11.718,12.432,12.432,0,0,1,5.51-1.279l4.695.069c-15.454,5.883-19.04,37.356-17.836,40.707a1.388,1.388,0,0,0-.117-.234Z"
                                  transform="translate(-2410.937 -594.57)"/>
                        </g>
                        <path class="aj"
                              d="M2422.269,704.126l-.89.181a7.351,7.351,0,0,1-8.638-5.734l-.938-4.641a7.353,7.353,0,0,1,5.734-8.638l.89-.181a7.35,7.35,0,0,1,8.638,5.734l.938,4.636A7.353,7.353,0,0,1,2422.269,704.126Z"
                              transform="translate(-2405.17 -636.795)"/>
                    </g>
                    <path class="ai"
                          d="M2351.75,1018.143s9.693-29.256-15.88-74.1l9.528-11.9s16.866,47.768,37.942,61.7c21.033,13.9,45.786,10.993,48.775,24.465Z"
                          transform="translate(-2289.961 -751.996)"/>
                    <path class="p"
                          d="M2312.334,814.85s-17.34,1.508-28.957,22.024-33.657,97.178-33.657,126.476h92.813s1.817-7.977-1.087-15.235l-57.435-11.084s34.574-51.339,34.936-73.475S2312.334,814.85,2312.334,814.85Z"
                          transform="translate(-2249.72 -697.208)"/>
                    <path class="aa"
                          d="M2422.217,1074.806s18.086-1.769,21.076-.954a88.9,88.9,0,0,1,13.471,5.579,54.34,54.34,0,0,1,5.58,4.8,11.9,11.9,0,0,1-3.677.133c-1.359-.3-5.441-.575-6.533-.666a33.9,33.9,0,0,0-4.988.714H2419.11Z"
                          transform="translate(-2328.844 -818.091)"/>
                    <g transform="translate(167.999 169.241)">
                        <path class="t" d="M2654.122,1087.629H2564.98a7.109,7.109,0,0,1,7.1-7.109h82.033v7.109Z"
                              transform="translate(-2564.98 -990.547)"/>
                        <path class="t" d="M2839.836,911.68l-33.055,97.082H2668.07l33.95-97.082Z"
                              transform="translate(-2613.135 -911.68)"/>
                        <path class="v" d="M2841.611,911.68l-32.751,96.187-.3.9H2671.87l33.956-97.082Z"
                              transform="translate(-2614.909 -911.68)"/>
                        <path class="y"
                              d="M2842.852,995.194a8.959,8.959,0,0,1-8.265,6.714c-3.709,0-6.021-3.005-5.164-6.714a8.959,8.959,0,0,1,8.265-6.714C2841.4,988.48,2843.7,991.485,2842.852,995.194Z"
                              transform="translate(-2688.421 -947.554)"/>
                        <path class="ag" d="M2906.642,911.68l-32.751,96.187h-62.8l76.576-96.187Z"
                              transform="translate(-2679.941 -911.68)"/>
                    </g>
                </g>
            </g>
        </g>
    </g>
</svg>
